<svg width="16" height="16" viewBox="0 0 16 16" fill="none" xmlns="http://www.w3.org/2000/svg">
<g clip-path="url(#clip0_5_2)">
<rect width="16" height="16" rx="3" fill="black"/>
<path d="M4.03665 14V2.07273H8.81222C9.68968 2.07273 10.4215 2.20279 11.0078 2.46293C11.5941 2.72306 12.0348 3.08414 12.3298 3.54616C12.6249 4.00431 12.7724 4.53234 12.7724 5.13026C12.7724 5.59616 12.6793 6.00578 12.4929 6.35909C12.3065 6.70852 12.0503 6.99583 11.7241 7.22102C11.4019 7.44233 11.033 7.59957 10.6176 7.69276V7.80923C11.0719 7.82865 11.497 7.95677 11.893 8.19361C12.2929 8.43044 12.6171 8.76241 12.8656 9.18949C13.1141 9.61269 13.2384 10.1174 13.2384 10.7037C13.2384 11.3366 13.0811 11.9015 12.7666 12.3984C12.456 12.8915 11.9959 13.2817 11.3864 13.569C10.7768 13.8563 10.0255 14 9.13253 14H4.03665ZM6.55838 11.9384H8.6142C9.31695 11.9384 9.82945 11.8044 10.1517 11.5365C10.474 11.2647 10.6351 10.9036 10.6351 10.4533C10.6351 10.1232 10.5555 9.83205 10.3963 9.57969C10.2371 9.32732 10.01 9.12931 9.71491 8.98565C9.42372 8.842 9.07623 8.77017 8.67244 8.77017H6.55838V11.9384ZM6.55838 7.06378H8.42784C8.77339 7.06378 9.08011 7.0036 9.34801 6.88324C9.61979 6.759 9.83333 6.58428 9.98864 6.35909C10.1478 6.1339 10.2274 5.86406 10.2274 5.54957C10.2274 5.11861 10.0741 4.77112 9.76733 4.5071C9.46449 4.24309 9.03352 4.11108 8.47443 4.11108H6.55838V7.06378Z" fill="#0B952F"/>
</g>
<defs>
<clipPath id="clip0_5_2">
<rect width="16" height="16" rx="3" fill="white"/>
</clipPath>
</defs>
</svg>
